<svg width="60" height="64" viewBox="0 0 60 64" fill="none" xmlns="http://www.w3.org/2000/svg">
<rect x="2" y="2" width="56" height="60" rx="12" fill="#C9C9C9"/>
<rect x="2" y="2" width="56" height="60" rx="12" stroke="black" stroke-width="4"/>
<rect x="4" y="4" width="48" height="48" rx="10" fill="#F5F5F5"/>
<path d="M14.68 12.84H39.96V19H30.68V42H24.48V19H14.68V12.84Z" fill="black"/>
<path d="M14.68 12.84V12.34H14.18V12.84H14.68ZM39.96 12.84H40.46V12.34H39.96V12.84ZM39.96 19V19.5H40.46V19H39.96ZM30.68 19V18.5H30.18V19H30.68ZM30.68 42V42.5H31.18V42H30.68ZM24.48 42H23.98V42.5H24.48V42ZM24.48 19H24.98V18.5H24.48V19ZM14.68 19H14.18V19.5H14.68V19ZM14.68 13.34H39.96V12.34H14.68V13.34ZM39.46 12.84V19H40.46V12.84H39.46ZM39.96 18.5H30.68V19.5H39.96V18.5ZM30.18 19V42H31.18V19H30.18ZM30.68 41.5H24.48V42.5H30.68V41.5ZM24.98 42V19H23.98V42H24.98ZM24.48 18.5H14.68V19.5H24.48V18.5ZM15.18 19V12.84H14.18V19H15.18Z" fill="black"/>
</svg>
